<?xml version="1.0" encoding="UTF-8"?>
<svg width="104px" height="84px" viewBox="0 0 104 84" version="1.1" xmlns="http://www.w3.org/2000/svg" xmlns:xlink="http://www.w3.org/1999/xlink">
    <title>Artboard</title>
    <g id="Artboard" stroke="none" stroke-width="1" fill="none" fill-rule="evenodd">
        <g id="F24" transform="translate(5.8428, 21.1045)" fill-rule="nonzero">
            <polygon id="Path" fill="#000000" points="7.17480469 44.8955078 0 44.8955078 0 0.635742188 24.9755859 0.635742188 24.9755859 6.75097656 7.17480469 6.75097656 7.17480469 20.5859375 23.8554688 20.5859375 23.8554688 26.7314453 7.17480469 26.7314453"></polygon>
            <path d="M59.8808594,44.8955078 L29.8798828,44.8955078 L29.8798828,39.5068359 L41.2929688,28.0332031 C44.6634115,24.5820313 46.8986003,22.1349284 47.9985352,20.6918945 C49.0984701,19.2488607 49.9007161,17.8916016 50.4052734,16.6201172 C50.9098307,15.3486328 51.1621094,13.9863281 51.1621094,12.5332031 C51.1621094,10.5351562 50.5616862,8.9609375 49.3608398,7.81054687 C48.1599935,6.66015625 46.5,6.08496094 44.3808594,6.08496094 C42.6855469,6.08496094 41.0457357,6.39778646 39.4614258,7.0234375 C37.8771159,7.64908854 36.0455729,8.77929688 33.9667969,10.4140625 L30.1220703,5.72167969 C32.5843099,3.64290365 34.9759115,2.16959635 37.296875,1.30175781 C39.6178385,0.433919271 42.0901693,0 44.7138672,0 C48.8310547,0 52.1308594,1.07470703 54.6132812,3.22412109 C57.0957031,5.37353516 58.3369141,8.26464844 58.3369141,11.8974609 C58.3369141,13.8955078 57.9786784,15.7926432 57.262207,17.5888672 C56.5457357,19.3850911 55.4458008,21.2368164 53.9624023,23.144043 C52.4790039,25.0512695 50.0117188,27.6295573 46.5605469,30.8789062 L38.8710938,38.3261719 L38.8710938,38.6289062 L59.8808594,38.6289062 L59.8808594,44.8955078 Z" id="Path" fill="#17A34A"></path>
            <path d="M96.8447266,35.2382812 L90.8808594,35.2382812 L90.8808594,44.8955078 L83.9482422,44.8955078 L83.9482422,35.2382812 L63.7255859,35.2382812 L63.7255859,29.7587891 L83.9482422,0.514648438 L90.8808594,0.514648438 L90.8808594,29.3349609 L96.8447266,29.3349609 L96.8447266,35.2382812 Z M83.9482422,29.3349609 L83.9482422,18.2246094 C83.9482422,14.2688802 84.0491536,11.0296224 84.2509766,8.50683594 L84.0087891,8.50683594 C83.4436849,9.83886719 82.5556641,11.4534505 81.3447266,13.3505859 L70.3554688,29.3349609 L83.9482422,29.3349609 Z" id="Shape" fill="#17A34A"></path>
        </g>
    </g>
</svg>